<svg width="130" height="5" viewBox="0 0 145 30" fill="none" xmlns="http://www.w3.org/2000/svg"><path d="M44.3847 9.47766C45.4245 10.7565 45.9466 12.5114 45.9466 14.747V24.5919H41.3334V15.5089C41.3334 14.3797 41.0745 13.5045 40.5615 12.8832C40.0438 12.2575 39.4263 11.9491 38.559 11.9491C37.6918 11.9491 37.0379 12.262 36.5248 12.8832C36.0072 13.509 35.7529 14.3162 35.7529 15.5089V24.66L31.1442 24.5919V7.96759H35.7529V9.97195C36.2161 9.22825 36.8381 8.63873 37.6191 8.2034C38.4001 7.7726 39.2356 7.55493 40.2118 7.55493C41.9554 7.55493 43.3494 8.19433 44.3892 9.47313L44.3847 9.47766Z" fill="#1D0E46"></path><path d="M13.0225 12.0352V17.8124C13.0225 20.0481 13.5447 21.803 14.5845 23.0818C15.6243 24.3606 17.0183 25 18.7619 25C19.7426 25 20.5736 24.7823 21.3546 24.3515C22.1356 23.9162 22.7622 23.3312 23.2208 22.5875V24.5919H27.8295V7.96753H23.2208V17.1186C23.2208 18.2478 22.962 19.064 22.4489 19.6853C21.9312 20.3111 21.2865 20.6194 20.4147 20.6194C19.5429 20.6194 18.9253 20.3065 18.4122 19.6853C17.8946 19.0595 17.6403 18.1843 17.6403 17.0597V7.96753H7.34219V5.27843C7.34219 4.91565 7.63734 4.62543 7.99605 4.62543H13.0225V0H6.63386C4.46344 0 2.70621 1.75494 2.70621 3.91801V7.96753H0V12.0216H2.70621V24.5873H7.33765V12.0216L13.0225 12.0307V12.0352Z" fill="#1D0E46"></path><path d="M137.163 12.1666H132.55V21.2542C132.55 23.0953 134.044 24.5918 135.892 24.5918H143.902V19.9845H137.817C137.454 19.9845 137.163 19.6898 137.163 19.3315V12.1712V12.1666Z" fill="#1D0E46"></path><path d="M137.163 7.55933V12.1666H143.248C143.611 12.1666 143.902 12.4614 143.902 12.8196V19.98H148.515V11.4773C148.515 9.31427 146.758 7.55933 144.592 7.55933H137.168H137.163Z" fill="#F35363"></path><path d="M67.6553 7.97205V12.5839H69.7122C70.0754 12.5839 70.3661 12.8786 70.3661 13.2369V24.5918H74.9839V11.8946C74.9839 9.73152 73.2266 7.97658 71.0608 7.97658H67.6598L67.6553 7.97205Z" fill="#1D0E46"></path><path d="M72.6727 5.74093C74.1473 5.74093 75.3426 4.54713 75.3426 3.07451C75.3426 1.60188 74.1473 0.408081 72.6727 0.408081C71.1982 0.408081 70.0028 1.60188 70.0028 3.07451C70.0028 4.54713 71.1982 5.74093 72.6727 5.74093Z" fill="#1D0E46"></path><path d="M56.3219 7.57754C54.7781 7.57754 53.3841 7.96753 52.1309 8.7475C50.8777 9.52748 49.8878 10.6476 49.1659 12.0987C48.4712 13.4863 48.117 15.0961 48.0897 16.9146C48.0897 18.6378 48.5256 19.6218 48.5256 19.6218C49.2612 21.9209 51.2001 25 56.3264 25C59.0281 25 60.7626 23.0501 60.7626 22.0524V24.6009H65.3805V0.825317H60.7626V10.4208C60.7626 9.55922 58.4832 7.57301 56.3264 7.57301L56.3219 7.57754ZM59.5685 19.4994C58.8192 20.2793 57.9066 20.6693 56.8305 20.6693C55.7543 20.6693 54.8417 20.2748 54.0925 19.4858C53.3432 18.6967 52.9664 17.6265 52.9664 16.2797C52.9664 14.9329 53.3432 13.8718 54.0925 13.1008C54.8417 12.3299 55.7543 11.949 56.8305 11.949C57.9066 11.949 58.8192 12.339 59.5685 13.119C60.3177 13.899 60.6945 14.9646 60.6945 16.3114C60.6945 17.6583 60.3177 18.7239 59.5685 19.5039V19.4994Z" fill="#1D0E46"></path><path d="M124.064 7.55942C125.834 7.55035 127.242 8.19428 128.291 9.45947C129.34 10.7292 129.862 12.4887 129.862 14.7424V24.5873H125.253V15.3546C125.253 14.2663 125.076 13.3911 124.59 12.797C124.104 12.203 123.637 11.9445 122.788 11.9445C121.939 11.9445 121.317 12.2166 120.831 12.8106C120.345 13.4047 120.168 14.2708 120.168 15.3592V24.5919H115.591V15.3592C115.591 14.2708 115.418 13.382 114.932 12.788C114.447 12.1939 113.834 11.949 112.98 11.949C112.126 11.949 111.604 12.1894 111.118 12.7834C110.632 13.3775 110.464 14.2754 110.464 15.3637V24.5964H105.878V7.97208H110.464V9.854C110.464 9.854 111.55 7.57302 114.41 7.55942C115.482 7.55489 116.317 7.8315 117.162 8.37567C118.006 8.91984 118.665 9.69528 119.142 10.702C119.142 10.702 120.858 7.57756 124.064 7.56396V7.55942Z" fill="#1D0E46"></path><path d="M96.8199 7.55942C98.5907 7.55035 99.9983 8.19428 101.047 9.45947C102.096 10.7292 102.618 12.4887 102.618 14.7424V24.5873H98.0095V15.3546C98.0095 14.2663 97.8324 13.3911 97.3466 12.797C96.8607 12.203 96.393 11.9445 95.5439 11.9445C94.6948 11.9445 94.0728 12.2166 93.5869 12.8106C93.1011 13.4047 92.924 14.2708 92.924 15.3592V24.5919H88.3471V15.3592C88.3471 14.2708 88.1745 13.382 87.6887 12.788C87.2028 12.1939 86.5898 11.949 85.7362 11.949C84.8826 11.949 84.3604 12.1894 83.8745 12.7834C83.3887 13.3775 83.2207 14.2754 83.2207 15.3637V24.5964H78.6346V7.97208H83.2207V9.854C83.2207 9.854 84.3059 7.57302 87.1665 7.55942C88.2381 7.55489 89.0735 7.8315 89.9181 8.37567C90.7627 8.91984 91.4211 9.69528 91.8978 10.702C91.8978 10.702 93.6142 7.57756 96.8199 7.56396V7.55942Z" fill="#1D0E46"></path></svg>