<svg width="12" height="12" viewBox="0 0 12 12" fill="none" xmlns="http://www.w3.org/2000/svg">
<g clip-path="url(#clip0_302_2691)">
<rect width="12" height="12" fill="#E1E7FE"/>
<g clip-path="url(#clip1_302_2691)">
<path d="M5.04529 9.12506C4.52501 9.12908 4.05895 8.80396 3.88311 8.31427C3.70727 7.82458 3.86003 7.27724 4.26404 6.9494C3.97748 6.71747 3.81099 6.36852 3.81099 5.99987C3.81099 5.63121 3.97748 5.28226 4.26404 5.05033C3.8599 4.72259 3.70704 4.17522 3.88292 3.68551C4.0588 3.1958 4.52498 2.87075 5.04529 2.87498H6.95467C7.47498 2.87075 7.94117 3.1958 8.11704 3.68551C8.29292 4.17522 8.14006 4.72259 7.73592 5.05033C8.13994 5.37818 8.2927 5.92552 8.11685 6.41521C7.94101 6.90489 7.47495 7.23002 6.95467 7.22596C6.71435 7.22625 6.47919 7.1563 6.27811 7.02471V7.89971C6.27518 8.57814 5.72373 9.12623 5.04529 9.12506ZM5.03842 7.22627C4.66827 7.23212 4.37239 7.53588 4.37627 7.90605C4.38015 8.27623 4.68234 8.57372 5.05253 8.57181C5.42272 8.56988 5.72181 8.26927 5.72186 7.89908V7.22627H5.03811H5.03842ZM6.95498 5.32721C6.58385 5.3291 6.28435 5.63117 6.28561 6.0023C6.28687 6.37343 6.58842 6.67345 6.95956 6.67282C7.33069 6.6722 7.63123 6.37116 7.63123 6.00002C7.62985 5.62754 7.32715 5.32652 6.95467 5.32721H6.95498ZM5.04561 5.3272C4.80523 5.32592 4.58244 5.45298 4.46114 5.6605C4.33984 5.86803 4.33847 6.1245 4.45754 6.33332C4.57662 6.54213 4.79805 6.67155 5.03842 6.67283H5.72186V5.3272H5.04561ZM6.27811 3.42815V4.77409H6.95436C7.31608 4.77577 7.61452 4.4914 7.63029 4.13002V4.26596V4.10096C7.62875 3.72892 7.32671 3.42815 6.95467 3.42815H6.27811ZM5.04498 3.42815C4.80461 3.42815 4.5825 3.55638 4.46231 3.76455C4.34212 3.97272 4.34212 4.2292 4.46231 4.43737C4.5825 4.64553 4.80461 4.77377 5.04498 4.77377H5.72186V3.42815H5.04498Z" fill="#516CF7"/>
</g>
</g>
<defs>
<clipPath id="clip0_302_2691">
<rect width="12" height="12" rx="6" fill="white"/>
</clipPath>
<clipPath id="clip1_302_2691">
<rect width="7.5" height="7.5" fill="white" transform="translate(2.25 2.25)"/>
</clipPath>
</defs>
</svg>
