<?xml version="1.0" encoding="utf-8"?>
<svg version="1.1" xmlns="http://www.w3.org/2000/svg" xmlns:xlink="http://www.w3.org/1999/xlink">
<g>
	<path class="st0" d="M22.2,24.2h2.6v-5.6c0-0.7-0.6-1.3-1.3-1.3c-0.7,0-1.3,0.6-1.3,1.3V24.2z"/>
	<path class="st0" d="M16.8,24.2h2.6v-5.6c0-0.7-0.6-1.3-1.3-1.3c-0.7,0-1.3,0.6-1.3,1.3V24.2z"/>
	<path class="st0" d="M27.6,24.2h2.6v-5.6c0-0.7-0.6-1.3-1.3-1.3c-0.7,0-1.3,0.6-1.3,1.3V24.2z"/>
	<path class="st0" d="M24.1,3.6c1.7,0.3,2.3,1.8,2.3,2.8v2.2H28v1.2c4.1,1.9,7,6.2,7,10.6c0,0,0,0.1,0,0.1v3.8h9.4v-3.8
		c-0.2-12.4-9-19.9-20.6-20.1L24.1,3.6z"/>
	<path class="st0" d="M22.4,6.4v2.2h2.3V6.4c0-0.6-0.5-1.1-1.1-1.1C22.9,5.2,22.4,5.8,22.4,6.4"/>
	<path class="st0" d="M25.2,30.3c-9.7-2.5-13.4-4.6-13.4-10.8c0-4.4,3-8.2,7.1-9.9v-1h1.6V6.5c0-1.1,0.7-2.6,2.4-2.8l0.3-3.2
		C11.5,0.5,1.6,8.6,2.1,19.5c0.5,12.2,14,15.7,21.2,17.2c5.7,1.2,19.4,4.4,22.8,14.1C46,50.8,47.3,34.8,25.2,30.3"/>
	<path class="st0" d="M22,47.3c9.8,3,12.3,6.6,12.3,11.8c0,7.9-6.1,11.1-13.8,11.1c-7.3,0-13.6-3.4-17.8-7.8c0,0-1.6,3.2-1.6,3.2
		c3.1,5.8,11.8,11.1,21.4,11.1h0c0,0,0,0,0,0v0C35,76.8,45.6,71,45.6,59.3c0-12.5-13.7-17.5-21.3-19.1c-6-1.3-21-5.3-23.7-13.7
		C0.6,26.5-2.4,41.1,22,47.3"/>
</g>
</svg>
